<svg width="12" height="11" viewBox="0 0 12 11" fill="none" xmlns="http://www.w3.org/2000/svg">
<path fill-rule="evenodd" clip-rule="evenodd" d="M9.4363 2.60572L4.26673 7.45873C4.02912 7.68153 3.64224 7.68153 3.40463 7.45873C3.16702 7.23593 3.16702 6.87317 3.40463 6.65037L8.5742 1.79736C8.81181 1.57456 9.19869 1.57456 9.4363 1.79736C9.55511 1.90876 9.61603 2.05444 9.61603 2.20011C9.61603 2.34865 9.55511 2.49432 9.4363 2.60572ZM11.3765 2.00093L10.0818 0.789818C9.48775 0.232821 8.52207 0.232821 7.92804 0.789818L2.37768 6.00273C2.20404 6.16269 2.0761 6.36264 1.99994 6.58258L0.884997 9.91314C0.735729 10.353 1.17744 10.7672 1.64657 10.6301L5.20465 9.58179C5.43617 9.51324 5.64941 9.39327 5.82305 9.23046L11.3765 4.01754C11.9705 3.46054 11.9705 2.55792 11.3765 2.00093Z" fill="white"/>
</svg>
