<svg width="24" height="25" viewBox="0 0 24 25" fill="none" xmlns="http://www.w3.org/2000/svg">
<path d="M0.42 0.4C0.42 0.13 0.69 0 0.82 0H3.49C3.62 0 3.76 0.13 3.76 0.4V15.62L0.42 18.53V0.4ZM23.58 4.74C23.58 4.32 23.31 4.03 23.02 3.76C22.73 3.47 22.33 3.34 21.91 3.34C21.49 3.34 21.06 3.47 20.8 3.76L17.02 7.1C16.46 6.83 15.91 6.68 15.35 6.68C14.66 6.68 13.81 6.97 13.39 7.39L0.42 18.82C0.13 19.09 0 19.38 0 19.93C0 20.22 0 20.49 0.27 21.06C0.69 21.75 1.4 22.31 1.67 22.6C2.36 23.29 3.63 24.27 4.74 24.27C5.3 24.27 5.59 24.14 6.01 23.85L18.85 12.26C19.83 11.44 19.96 10.17 19.27 9.06L23.03 5.72C23.31 5.43 23.58 5.16 23.58 4.74ZM18.71 15.33C16.62 15.33 14.93 16.87 14.93 18.69C14.93 20.63 16.62 22.18 18.71 22.18C20.93 22.18 22.6 20.62 22.6 18.69C22.6 16.86 20.93 15.33 18.71 15.33ZM10.75 0.56C10.75 0.27 10.88 0 11.02 0H13.69C13.82 0 13.96 0.27 13.96 0.56V6.68V6.84H13.83H13.7V6.97H13.57H13.41V7.1H13.28V7.26H13.15L10.77 9.35V0.56H10.75ZM5.85 0H8.65C8.78 0 8.92 0.27 8.92 0.56V11.02L5.58 13.96V0.56C5.58 0.27 5.72 0 5.85 0Z" fill="#B7B7B7"/>
</svg>
