<svg width="22" height="22" viewBox="0 0 22 22" fill="none" xmlns="http://www.w3.org/2000/svg">
<path d="M20 12.8193C20.5522 12.8193 21 13.2671 21 13.8193V19.1813C20.9975 19.663 20.805 20.1242 20.4644 20.4649C20.1238 20.8055 19.6626 20.9979 19.1809 21.0004C18.7 20.9955 18.2402 20.8022 17.9001 20.4621C17.56 20.1221 17.3668 19.6622 17.3618 19.1813V13.8193C17.3618 13.2671 17.8095 12.8193 18.3618 12.8193H20Z" stroke="#B7B7B7" stroke-width="1.91" stroke-miterlimit="10"/>
<path d="M-nan -nanL19.1812 21.0003H2.81907C2.3374 20.9978 1.87616 20.8053 1.53556 20.4647C1.19496 20.1241 1.0025 19.6629 1 19.1812V2C1 1.44772 1.44772 1 2 1H16.3621C16.9144 1 17.3621 1.44772 17.3621 2V19.1812C17.3671 19.6621 17.5604 20.1219 17.9004 20.462C18.2405 20.8021 18.7003 20.9953 19.1812 21.0003L-nan -nanL-nan -nanZ" stroke="#B7B7B7" stroke-width="1.91" stroke-miterlimit="10"/>
<path d="M12.734 4.63867H5.63867C5.08639 4.63867 4.63867 5.08639 4.63867 5.63867V8.1816C4.63867 8.73388 5.08639 9.1816 5.63867 9.1816H12.734C13.2863 9.1816 13.734 8.73388 13.734 8.1816V5.63867C13.734 5.08639 13.2863 4.63867 12.734 4.63867Z" stroke="#B7B7B7" stroke-width="1.91" stroke-miterlimit="10"/>
<path d="M3.72412 12.8193H7.36227" stroke="#B7B7B7" stroke-width="1.91" stroke-miterlimit="10"/>
<path d="M3.72412 16.458H7.36227" stroke="#B7B7B7" stroke-width="1.91" stroke-miterlimit="10"/>
<path d="M12.7334 12.8193H11.0952C10.5429 12.8193 10.0952 13.2671 10.0952 13.8193V15.4575C10.0952 16.0098 10.5429 16.4575 11.0952 16.4575H12.7334C13.2856 16.4575 13.7334 16.0098 13.7334 15.4575V13.8193C13.7334 13.2671 13.2856 12.8193 12.7334 12.8193Z" stroke="#B7B7B7" stroke-width="1.91" stroke-miterlimit="10"/>
</svg>
